<svg xmlns="http://www.w3.org/2000/svg" width="15" height="16" viewBox="0 0 15 16">
    <g fill="none" fill-rule="evenodd">
        <g fill="#8C99A8">
            <g>
                <path d="M137.344 13.392h-.188c0-1.321-1.035-2.392-2.351-2.392H133.3c-1.316 0-2.35 1.071-2.35 2.392h-3.104c-.47 0-.846.357-.846.797 0 .441.376.797.846.797h.753v9.569c0 1.32 1.034 2.391 2.35 2.391h6.207c1.316 0 2.35-1.07 2.35-2.391v-9.569h.753c.47 0 .846-.356.846-.797 0-.44-.376-.797-.846-.797h-2.915zm-4.89 0h3.197c0-.44-.376-.797-.846-.797H133.3c-.47 0-.846.357-.846.797zm0 3.189c.47 0 .846.357.846.797v5.582c0 .44-.376.797-.846.797-.376 0-.752-.357-.752-.797v-5.582c0-.44.376-.797.752-.797zm3.95.797c0-.44-.377-.797-.753-.797-.47 0-.846.357-.846.797v5.582c0 .44.376.797.846.797.376 0 .753-.357.753-.797v-5.582z" transform="translate(-1359 -1233) translate(1232 1222)"/>
            </g>
        </g>
    </g>
</svg>
